Coordinates
version=1
nRows=19
nColumns=24
inDegrees=yes

Units are S.I. units (second, meters, Newtons, ...)
Angles are in degrees.

endheader
time	pelvis_tilt	pelvis_list	pelvis_rotation	pelvis_tx	pelvis_ty	pelvis_tz	hip_flexion_r	hip_adduction_r	hip_rotation_r	knee_angle_r	ankle_angle_r	subtalar_angle_r	mtp_angle_r	hip_flexion_l	hip_adduction_l	hip_rotation_l	knee_angle_l	ankle_angle_l	subtalar_angle_l	mtp_angle_l	lumbar_extension	lumbar_bending	lumbar_rotation
      0.01000000	     64.31703882	      3.46616908	     -2.13663733	      0.76708376	      1.02420446	     -0.28653637	      7.29393496	     -7.19713912	     10.30809681	     -1.55889025	     -6.70022111	    -14.24804927	    -13.30255459	     -0.94917094	     -4.30403102	    -12.45303015	    -61.53532270	      1.75609403	     -8.00316631	    -44.74127626	      0.00000000	      0.00000000	      0.00000000
      0.02000000	     64.31978257	      3.48650344	     -2.21272241	      0.76710504	      1.02425282	     -0.28651631	      7.31957739	     -7.21204554	     10.33926198	     -1.58511547	     -6.70162457	    -14.21322024	    -13.32019842	     -0.98034391	     -4.27942372	    -12.53249551	    -61.50958355	      1.68391917	     -7.94242711	    -44.75991468	      0.00000000	      0.00000000	      0.00000000
      0.03000000	     64.32132948	      3.49764460	     -2.24644951	      0.76713360	      1.02429680	     -0.28648218	      7.33101879	     -7.22035901	     10.35099553	     -1.59676503	     -6.70178098	    -14.19297177	    -13.33822097	     -0.99782673	     -4.27043673	    -12.57037856	    -61.49639038	      1.64483052	     -7.90929384	    -44.78113825	      0.00000000	      0.00000000	      0.00000000
      0.04000000	     64.32458612	      3.50119906	     -2.25186146	      0.76714877	      1.02431324	     -0.28644889	      7.33197727	     -7.22345438	     10.35157814	     -1.59718071	     -6.70189781	    -14.18319892	    -13.35855268	     -1.00619377	     -4.27029524	    -12.57863372	    -61.49243045	      1.63052185	     -7.89545002	    -44.80586711	      0.00000000	      0.00000000	      0.00000000
      0.05000000	     64.33129646	      3.50009870	     -2.24297161	      0.76713863	      1.02429667	     -0.28642776	      7.32599078	     -7.22345166	     10.35118145	     -1.59030058	     -6.70326096	    -14.17923840	    -13.38299531	     -1.01038498	     -4.27299797	    -12.57018648	    -61.49397890	      1.63169909	     -7.89171367	    -44.83492486	      0.00000000	      0.00000000	      0.00000000
      0.06000000	     64.34106065	      3.49765325	     -2.22954522	      0.76711430	      1.02427101	     -0.28642393	      7.31566924	     -7.22345675	     10.35901562	     -1.57971639	     -6.70670659	    -14.17717301	    -13.41239541	     -1.01431246	     -4.27579510	    -12.55539012	    -61.49777533	      1.64036425	     -7.89051135	    -44.86866780	      0.00000000	      0.00000000	      0.00000000
      0.07000000	     64.35196068	      3.49547001	     -2.21657631	      0.76709717	      1.02426398	     -0.28643512	      7.30311331	     -7.22738140	     10.38048850	     -1.56814440	     -6.71222073	    -14.17467038	    -13.44617425	     -1.02019860	     -4.27899969	    -12.54086811	    -61.50145137	      1.65081056	     -7.88703313	    -44.90678519	      0.00000000	      0.00000000	      0.00000000
      0.08000000	     64.36199499	      3.49264023	     -2.20621910	      0.76709578	      1.02427947	     -0.28644455	      7.29059026	     -7.23811904	     10.41510762	     -1.55734018	     -6.71877231	    -14.17118734	    -13.48227412	     -1.02846287	     -4.28378084	    -12.53021018	    -61.50363495	      1.65965845	     -7.87930497	    -44.94824786	      0.00000000	      0.00000000	      0.00000000
      0.09000000	     64.37016727	      3.48811397	     -2.19993797	      0.76710372	      1.02430060	     -0.28642851	      7.28064086	     -7.25423569	     10.45632012	     -1.54827002	     -6.72446785	    -14.16743397	    -13.51752451	     -1.03812371	     -4.28985706	    -12.52525069	    -61.50391211	      1.66540248	     -7.86761577	    -44.99137669	      0.00000000	      0.00000000	      0.00000000
      0.10000000	     64.37660285	      3.48389279	     -2.19937296	      0.76711110	      1.02430965	     -0.28639410	      7.27549414	     -7.26847988	     10.49420498	     -1.54131270	     -6.72702764	    -14.16424499	    -13.54833298	     -1.04763266	     -4.29496157	    -12.52679870	    -61.50268093	      1.66782424	     -7.85367677	    -45.03400090	      0.00000000	      0.00000000	      0.00000000
      0.11000000	     64.38186338	      3.48364538	     -2.20565831	      0.76711179	      1.02430509	     -0.28637654	      7.27620925	     -7.27256710	     10.52050015	     -1.53645042	     -6.72446081	    -14.16139248	    -13.57149512	     -1.05572336	     -4.29659428	    -12.53449955	    -61.50081043	      1.66747318	     -7.83979088	    -45.07367898	      0.00000000	      0.00000000	      0.00000000
      0.12000000	     64.38606388	      3.48760157	     -2.21815490	      0.76710483	      1.02429848	     -0.28637996	      7.28194859	     -7.26523021	     10.53320804	     -1.53336411	     -6.71574165	    -14.15710387	    -13.58485289	     -1.06183410	     -4.29440724	    -12.54648730	    -61.49916046	      1.66527184	     -7.82817319	    -45.10795860	      0.00000000	      0.00000000	      0.00000000
      0.13000000	     64.38875909	      3.49169428	     -2.23399678	      0.76709565	      1.02429569	     -0.28637676	      7.28993760	     -7.25354200	     10.53735574	     -1.53117451	     -6.70125747	    -14.14874602	    -13.58759333	     -1.06598535	     -4.29069934	    -12.55973420	    -61.49817658	      1.66223057	     -7.82044032	    -45.13465361	      0.00000000	      0.00000000	      0.00000000
      0.14000000	     64.38981468	      3.49197205	     -2.24891856	      0.76709253	      1.02428994	     -0.28635790	      7.29660399	     -7.24609464	     10.54125875	     -1.52815055	     -6.68283589	    -14.13438453	    -13.58015600	     -1.06851251	     -4.28843669	    -12.57120687	    -61.49776575	      1.65922581	     -7.81728981	    -45.15210586	      0.00000000	      0.00000000	      0.00000000
      0.15000000	     64.39013397	      3.48825615	     -2.25893752	      0.76709532	      1.02427539	     -0.28634243	      7.29930903	     -7.24614148	     10.55107582	     -1.52212012	     -6.66331950	    -14.11429744	    -13.56389455	     -1.07006870	     -4.28890192	    -12.57900012	    -61.49747393	      1.65683040	     -7.81845542	    -45.15939300	      0.00000000	      0.00000000	      0.00000000
      0.16000000	     64.39126842	      3.48396572	     -2.26212158	      0.76709383	      1.02426211	     -0.28635446	      7.29731850	     -7.25045459	     10.56728481	     -1.51166166	     -6.64585314	    -14.09150698	    -13.54070245	     -1.07169651	     -4.29120229	    -12.58266821	    -61.49679102	      1.65525755	     -7.82296884	    -45.15646044	      0.00000000	      0.00000000	      0.00000000
      0.17000000	     64.39407036	      3.48213431	     -2.25949595	      0.76708494	      1.02426174	     -0.28638489	      7.29128224	     -7.25421938	     10.58499784	     -1.49740069	     -6.63316093	    -14.07099161	    -13.51274423	     -1.07454706	     -4.29356231	    -12.58285915	    -61.49538814	      1.65445565	     -7.82960369	    -45.14417256	      0.00000000	      0.00000000	      0.00000000
      0.18000000	     64.39806263	      3.48261212	     -2.25436118	      0.76707988	      1.02426691	     -0.28639174	      7.28241463	     -7.25528460	     10.59712793	     -1.48202205	     -6.62709637	    -14.05796674	    -13.48231005	     -1.07931343	     -4.29460397	    -12.58088699	    -61.49321845	      1.65427404	     -7.83727548	    -45.12427872	      0.00000000	      0.00000000	      0.00000000
      0.19000000	     64.40243843	      3.48415278	     -2.25029883	      0.76708533	      1.02426737	     -0.28636162	      7.27255050	     -7.25293433	     10.59811321	     -1.46865395	     -6.62853502	    -14.05601669	    -13.45172484	     -1.08583577	     -4.29364018	    -12.57845886	    -61.49052278	      1.65457864	     -7.84522905	    -45.09928949	      0.00000000	      0.00000000	      0.00000000
